<?xml version="1.0" encoding="UTF-8"?>
<!-- Do not edit this file with editors other than draw.io -->
<!DOCTYPE svg PUBLIC "-//W3C//DTD SVG 1.1//EN" "http://www.w3.org/Graphics/SVG/1.1/DTD/svg11.dtd">
<svg xmlns="http://www.w3.org/2000/svg" xmlns:xlink="http://www.w3.org/1999/xlink" version="1.1" width="367px" height="384px" viewBox="-0.5 -0.5 367 384" content="&lt;mxfile host=&quot;Electron&quot; agent=&quot;Mozilla/5.0 (Windows NT 10.0; Win64; x64) AppleWebKit/537.36 (KHTML, like Gecko) draw.io/24.7.8 Chrome/128.0.6613.36 Electron/32.0.1 Safari/537.36&quot; version=&quot;24.7.8&quot; scale=&quot;1&quot; border=&quot;0&quot;&gt;&#10;  &lt;diagram name=&quot;Page-1&quot; id=&quot;xtasoe3QppqHc60LsP2B&quot;&gt;&#10;    &lt;mxGraphModel dx=&quot;821&quot; dy=&quot;522&quot; grid=&quot;1&quot; gridSize=&quot;10&quot; guides=&quot;1&quot; tooltips=&quot;1&quot; connect=&quot;1&quot; arrows=&quot;1&quot; fold=&quot;1&quot; page=&quot;1&quot; pageScale=&quot;1&quot; pageWidth=&quot;850&quot; pageHeight=&quot;1100&quot; math=&quot;0&quot; shadow=&quot;0&quot;&gt;&#10;      &lt;root&gt;&#10;        &lt;mxCell id=&quot;0&quot; /&gt;&#10;        &lt;mxCell id=&quot;1&quot; parent=&quot;0&quot; /&gt;&#10;        &lt;mxCell id=&quot;oV0VCarFuINdxXblMXt1-2&quot; value=&quot;&quot; style=&quot;whiteSpace=wrap;html=1;aspect=fixed;strokeColor=none;&quot; parent=&quot;1&quot; vertex=&quot;1&quot;&gt;&#10;          &lt;mxGeometry x=&quot;245&quot; y=&quot;40&quot; width=&quot;360&quot; height=&quot;360&quot; as=&quot;geometry&quot; /&gt;&#10;        &lt;/mxCell&gt;&#10;        &lt;mxCell id=&quot;oV0VCarFuINdxXblMXt1-5&quot; value=&quot;&quot; style=&quot;group&quot; parent=&quot;1&quot; vertex=&quot;1&quot; connectable=&quot;0&quot;&gt;&#10;          &lt;mxGeometry x=&quot;244.77163081543165&quot; y=&quot;70.00163081543164&quot; width=&quot;343.9367383691367&quot; height=&quot;343.9367383691367&quot; as=&quot;geometry&quot; /&gt;&#10;        &lt;/mxCell&gt;&#10;        &lt;mxCell id=&quot;oV0VCarFuINdxXblMXt1-1&quot; value=&quot;&quot; style=&quot;sketch=0;aspect=fixed;pointerEvents=1;shadow=1;dashed=0;html=1;strokeColor=none;labelPosition=center;verticalLabelPosition=bottom;verticalAlign=top;align=center;fillColor=#1f3e76;shape=mxgraph.mscae.enterprise.key_permissions;rotation=45;textShadow=0;&quot; parent=&quot;oV0VCarFuINdxXblMXt1-5&quot; vertex=&quot;1&quot;&gt;&#10;          &lt;mxGeometry x=&quot;88.76836918456837&quot; y=&quot;11.96836918456836&quot; width=&quot;166.4&quot; height=&quot;320&quot; as=&quot;geometry&quot; /&gt;&#10;        &lt;/mxCell&gt;&#10;        &lt;mxCell id=&quot;oV0VCarFuINdxXblMXt1-3&quot; value=&quot;&quot; style=&quot;sketch=0;pointerEvents=1;shadow=1;dashed=0;html=1;strokeColor=none;fillColor=none;labelPosition=center;verticalLabelPosition=bottom;verticalAlign=top;align=center;outlineConnect=0;shape=mxgraph.veeam2.wireguard;&quot; parent=&quot;oV0VCarFuINdxXblMXt1-5&quot; vertex=&quot;1&quot;&gt;&#10;          &lt;mxGeometry x=&quot;147.76836918456837&quot; y=&quot;65.96836918456836&quot; width=&quot;130&quot; height=&quot;110&quot; as=&quot;geometry&quot; /&gt;&#10;        &lt;/mxCell&gt;&#10;      &lt;/root&gt;&#10;    &lt;/mxGraphModel&gt;&#10;  &lt;/diagram&gt;&#10;&lt;/mxfile&gt;&#10;" style="background-color: rgb(255, 255, 255);"><defs/><rect fill="#ffffff" width="100%" height="100%" x="0" y="0"/><g><g data-cell-id="0"><g data-cell-id="1"><g data-cell-id="oV0VCarFuINdxXblMXt1-2"><g><rect x="6" y="0" width="360" height="360" fill="rgb(255, 255, 255)" stroke="none" pointer-events="all"/></g></g><g data-cell-id="oV0VCarFuINdxXblMXt1-5"><g/><g data-cell-id="oV0VCarFuINdxXblMXt1-1"><g style="filter: drop-shadow(rgba(0, 0, 0, 0.25) 2px 3px 2px);"><rect x="94.54" y="41.97" width="166.4" height="320" fill="none" stroke="none" transform="rotate(45,177.74,201.97)" pointer-events="all"/><path d="M 113.74 171.27 C 103.22 169.76 95.19 161.05 94.54 150.41 L 94.54 58.97 C 96.76 49.83 104.42 43.05 113.74 41.97 L 240.14 41.97 C 250.07 42.39 258.54 49.31 260.94 58.97 L 260.94 150.41 C 260.09 160.31 252.39 168.23 242.54 169.34 L 222.54 169.34 C 214.61 176.42 207.91 184.77 202.7 194.05 C 200.04 200.56 199.59 207.78 201.42 214.58 L 219.02 241.21 L 207.5 257.57 L 200.14 265.27 L 200.14 276.5 C 205.6 281.45 211.62 285.76 218.06 289.33 L 218.38 298.96 L 210.7 304.41 C 208.69 306.81 207.98 310.05 208.78 313.07 L 208.46 331.04 L 200.14 332.32 C 200.23 340.04 197.23 347.47 191.82 352.95 C 186.41 358.44 179.03 361.52 171.34 361.52 C 163.54 361.96 155.89 359.2 150.16 353.87 C 144.43 348.55 141.1 341.12 140.94 333.29 L 140.94 171.27 Z M 154.06 334.89 C 155.5 339.76 158.12 342.75 160.94 342.75 C 163.76 342.75 166.38 339.76 167.82 334.89 L 167.82 181.85 C 166.38 176.98 163.76 174 160.94 174 C 158.12 174 155.5 176.98 154.06 181.85 Z M 177.74 95.87 C 182.83 95.87 187.72 93.84 191.32 90.23 C 194.92 86.62 196.94 81.73 196.94 76.62 C 197.11 71.4 195.17 66.34 191.55 62.59 C 187.93 58.84 182.95 56.73 177.74 56.73 C 172.53 56.73 167.55 58.84 163.93 62.59 C 160.31 66.34 158.37 71.4 158.54 76.62 C 158.54 81.73 160.56 86.62 164.16 90.23 C 167.76 93.84 172.65 95.87 177.74 95.87 Z" fill="#1f3e76" stroke="none" transform="rotate(45,177.74,201.97)" pointer-events="all"/></g></g><g data-cell-id="oV0VCarFuINdxXblMXt1-3"><g style="filter: drop-shadow(rgba(0, 0, 0, 0.25) 2px 3px 2px);"><rect x="153.54" y="95.97" width="130" height="110" fill="none" stroke="none" pointer-events="all"/><path d="M 153.54 205.97 L 283.54 205.97 L 283.54 95.97 L 153.54 95.97 Z" fill="none" stroke="none" pointer-events="all"/><path d="M 217.74 107.16 C 216.44 107.19 215.14 107.29 213.76 107.38 L 222.78 109.16 L 222.67 109.61 C 218.81 110.04 215.14 108.84 211.36 108.42 C 212.73 109.1 214.11 109.71 215.56 110.26 C 217.01 110.81 218.5 111.3 220.03 111.78 C 218.12 113.17 216.21 113.46 213.8 113.01 C 212.46 112.75 211.09 112.62 209.75 112.69 C 208.3 112.72 206.92 113.07 205.7 113.75 C 207.08 114.3 208.3 114.79 209.48 115.37 C 209.94 115.63 210.52 116.02 210.63 116.44 C 210.9 117.47 211.13 118.51 211.24 119.54 C 209.03 119.74 205.17 121.64 204.36 122.87 C 207.76 123.42 211.47 122.77 214.68 124.62 C 213.61 125.3 211.13 126.14 210.25 126.72 C 211.36 126.98 213.95 126.85 214.99 126.78 C 215.83 126.75 216.25 126.72 216.59 126.98 L 226.56 133.57 C 227.6 134.29 231.84 137.68 232.95 139.81 C 233.56 140.98 233.94 142.27 234.02 143.57 C 234.02 145.05 233.67 146.54 233.02 147.9 C 232.68 148.64 231.69 150.29 229.58 152.2 C 226.34 155.17 222.17 156.79 217.62 157.57 C 207.04 159.44 198.25 168.98 200.73 179.55 C 203.64 191.87 219.69 198.53 232.83 192.68 C 241.31 188.9 245.82 181.49 244.6 173.44 C 243.88 168.59 241.28 164.65 236.92 161.45 C 236.35 161.03 236.35 161.32 235.7 161.67 C 233.44 162.9 232.18 163.97 228.51 165.2 C 227.1 165.68 225.84 166.04 224.16 166.65 C 224.73 166.78 224.73 166.78 225 166.85 C 231.34 168.27 234.74 172.99 233.21 178.26 C 231.91 182.92 226.3 185.92 220.83 185.15 C 216.29 184.47 212.35 181.3 211.66 177.45 C 210.94 173.31 213.42 169.3 217.78 167.62 C 220.18 166.68 222.67 165.88 225.07 164.94 C 227.83 163.87 230.81 163.03 233.18 161.54 C 239.14 157.82 242.81 152.75 244.26 146.6 C 245.1 142.92 245.02 139.27 243.03 135.77 C 241.51 133.09 239.02 131.15 236.35 129.37 C 233.56 127.53 230.62 125.88 227.86 124.04 C 227.14 123.55 226.64 122.68 226.3 121.9 C 226.14 121.58 226.6 120.67 226.91 120.64 C 228.63 120.38 230.35 120.22 232.07 120.19 C 234.05 120.12 236.04 120.19 238.03 120.19 C 238.45 120.19 239.02 120.16 239.29 120.35 C 240.32 121.22 241.12 120.67 241.85 120.09 C 242.38 119.61 242.92 119.06 243.34 118.47 C 242.88 118.38 242.38 118.31 241.89 118.28 C 239.86 118.25 237.88 118.28 235.85 118.22 L 235.85 118.22 C 235.51 118.22 235.16 117.89 234.82 117.73 C 235.2 117.6 235.54 117.38 235.93 117.38 C 239.37 117.34 242.81 117.34 246.28 117.34 C 246.28 115.82 243.88 113.75 241.74 113.2 L 241.7 113.79 C 239.6 113.82 237.49 113.79 235.62 112.95 C 235.12 112.72 234.78 112.23 234.4 111.85 C 233.9 111.39 233.44 110.78 232.83 110.49 C 231.57 109.87 230.19 109.42 228.86 108.87 C 225.3 107.38 221.64 107.06 217.74 107.16 Z M 231.8 113.27 C 231.95 113.3 232.11 113.37 232.3 113.49 C 232.68 113.75 233.02 114.04 233.52 114.37 C 232.91 114.63 232.45 114.85 231.99 115.05 L 231.95 115.08 C 231.42 115.34 230.73 115.18 230.42 114.69 C 230.35 114.66 230.31 114.63 230.27 114.56 C 230.04 114.27 230.16 113.88 230.5 113.69 C 230.92 113.4 231.34 113.17 231.8 113.27 Z M 212.85 132.41 C 209.33 132.54 205.82 133.41 202.76 135 C 196.68 138.17 193.17 143.4 193.17 149.39 C 193.17 155.3 196.64 160.61 202.41 163.61 C 202.76 163.77 202.87 163.81 202.91 163.81 C 202.91 163.81 203.03 163.74 203.18 163.52 C 205.2 161.22 207.84 159.28 210.82 157.92 L 210.9 157.86 C 204.67 156.34 202.95 153.14 202.68 150.58 C 202.22 146.22 204.82 142.56 209.45 141.11 C 213.8 139.75 218.77 141.01 221.52 144.21 C 223.24 146.22 223.89 148.74 223.28 151.16 C 223.01 152.46 222.4 153.62 221.44 154.75 C 226.45 153.07 229.74 150.1 231.3 145.93 C 231.88 144.34 231.69 142.18 230.88 140.88 C 228.59 137.13 224.31 134.29 219.15 133.06 C 217.09 132.57 214.95 132.35 212.85 132.41 Z M 200.81 166.52 C 195.54 166.81 189.77 170.66 188.12 174.99 C 188.2 174.96 188.28 174.93 188.35 174.93 C 189.73 174.51 191.18 174.09 192.59 173.77 C 194.05 173.47 195.5 173.25 197.03 173.05 C 197.48 172.99 197.91 172.92 198.36 172.86 C 198.63 170.6 199.47 168.46 200.81 166.52 Z" fill="#ffffff" stroke="none" pointer-events="all"/></g></g></g></g></g></g></svg>